<svg xmlns="http://www.w3.org/2000/svg" width="93" height="32" viewBox="0 0 93 32" fill="none">
  <path d="M85.3563 24.6007C83.9559 24.6007 82.744 24.3148 81.7206 23.7429C80.6972 23.171 79.9072 22.3667 79.3507 21.3301C78.812 20.2757 78.5427 19.0425 78.5427 17.6306C78.5427 16.2366 78.812 15.0213 79.3507 13.9847C79.9072 12.9302 80.6972 12.117 81.7206 11.5451C82.744 10.9732 83.9559 10.6873 85.3563 10.6873C86.7567 10.6873 87.9507 10.9732 88.9382 11.5451C89.9436 12.117 90.7156 12.9302 91.2542 13.9847C91.7929 15.0213 92.0622 16.2366 92.0622 17.6306C92.0622 19.0425 91.7929 20.2757 91.2542 21.3301C90.7156 22.3667 89.9436 23.171 88.9382 23.7429C87.9507 24.3148 86.7567 24.6007 85.3563 24.6007ZM85.3563 21.5446C86.5951 21.5446 87.4659 21.2497 87.9686 20.6599C88.4714 20.0523 88.7227 19.0425 88.7227 17.6306C88.7227 16.2366 88.4714 15.2447 87.9686 14.6549C87.4659 14.0472 86.5951 13.7434 85.3563 13.7434C84.0995 13.7434 83.2198 14.0472 82.7171 14.6549C82.2143 15.2447 81.963 16.2366 81.963 17.6306C81.963 19.0425 82.2143 20.0523 82.7171 20.6599C83.2198 21.2497 84.0995 21.5446 85.3563 21.5446Z" fill="#181E2C"/>
  <path d="M70.5637 24.3326H67.0896V10.9285H70.2944V14.7085L70.5637 14.8425V24.3326ZM70.5637 15.8612H69.8635V13.0732H70.4291C70.7343 12.4298 71.1921 11.8758 71.8026 11.4111C72.413 10.9285 73.212 10.6873 74.1994 10.6873C75.151 10.6873 75.914 10.9017 76.4886 11.3307C77.0631 11.7596 77.4761 12.3315 77.7274 13.0464C77.9788 13.7613 78.1045 14.5566 78.1045 15.4323V16.3706H74.6573V15.8076C74.6573 14.9855 74.5136 14.4136 74.2264 14.0919C73.9391 13.7702 73.4274 13.6094 72.6913 13.6094C71.9552 13.6094 71.4165 13.7791 71.0754 14.1187C70.7343 14.4404 70.5637 15.0213 70.5637 15.8612Z" fill="#181E2C"/>
  <path d="M57.2425 24.6002C56.0755 24.6002 55.1149 24.3679 54.3609 23.9032C53.6068 23.4207 53.0502 22.7862 52.6911 21.9998C52.35 21.2135 52.1794 20.3288 52.1794 19.3458V10.9548H55.6536V18.7024C55.6536 19.7569 55.869 20.5075 56.2999 20.9543C56.7488 21.4011 57.5208 21.6245 58.616 21.6245C59.2983 21.6245 59.8728 21.5262 60.3396 21.3296C60.8064 21.133 61.1475 20.8113 61.363 20.3645C61.5964 19.8998 61.7131 19.2833 61.7131 18.5148H62.5749V21.839H61.8477C61.6143 22.3394 61.3001 22.8041 60.9051 23.233C60.5102 23.6441 60.0074 23.9747 59.397 24.2249C58.8045 24.4751 58.0863 24.6002 57.2425 24.6002ZM65.1872 24.3321H61.9824V20.4449L61.7131 20.3109V10.9548H65.1872V24.3321Z" fill="#181E2C"/>
  <path d="M42.7952 24.601C41.0177 24.601 39.4916 24.2256 38.2169 23.475C36.9601 22.7065 35.9906 21.6342 35.3083 20.258C34.626 18.864 34.2849 17.2287 34.2849 15.3521C34.2849 13.4755 34.626 11.8492 35.3083 10.473C35.9906 9.07898 36.9601 8.00666 38.2169 7.25603C39.4916 6.48752 41.0177 6.10327 42.7952 6.10327C44.5008 6.10327 45.9461 6.39816 47.1311 6.98794C48.3161 7.55985 49.2227 8.38197 49.8511 9.4543C50.4795 10.5266 50.7937 11.7956 50.7937 13.2611V13.4219H47.1042V13.2611C47.1042 11.867 46.763 10.8841 46.0808 10.3122C45.4165 9.74026 44.3033 9.4543 42.7413 9.4543C41.6281 9.4543 40.7215 9.63302 40.0213 9.99047C39.321 10.3479 38.8004 10.9556 38.4592 11.8134C38.1361 12.6713 37.9745 13.8509 37.9745 15.3521C37.9745 16.8534 38.1361 18.0329 38.4592 18.8908C38.8004 19.7487 39.321 20.3563 40.0213 20.7138C40.7215 21.0712 41.6281 21.2499 42.7413 21.2499C44.3033 21.2499 45.4165 20.964 46.0808 20.3921C46.763 19.8202 47.1042 18.8372 47.1042 17.4432V17.2823H50.7937V17.4432C50.7937 18.9087 50.4795 20.1776 49.8511 21.2499C49.2227 22.3223 48.3161 23.1533 47.1311 23.7431C45.9461 24.315 44.5008 24.601 42.7952 24.601Z" fill="#181E2C"/>
  <path d="M21.3741 22.652C21.8293 22.3903 22.2528 22.0903 22.6445 21.7519C23.022 21.4217 23.3576 21.0683 23.6513 20.6918C23.9533 20.3295 24.1992 19.9522 24.3889 19.5599L26.2985 22.8522C25.9993 23.3829 25.6022 23.8754 25.1071 24.3299C24.6059 24.8067 24.0567 25.2168 23.4592 25.5602C22.6199 26.0425 21.7515 26.4094 20.8542 26.6608C19.9426 26.9204 19.1037 27.0438 18.3376 27.031L17.4681 23.9622C18.1685 23.8617 18.8503 23.6965 19.5135 23.4664C20.1849 23.2505 20.8051 22.979 21.3741 22.652ZM26.89 21.8609L23.1818 15.4674C22.7465 14.7169 22.2374 14.0844 21.6544 13.5698C21.0654 13.0775 20.4138 12.7062 19.6996 12.4559L23.6045 10.2117C24.1764 10.5438 24.7284 10.9723 25.2605 11.4973C25.7926 12.0222 26.2763 12.66 26.7116 13.4105C27.5822 14.9115 28.0207 16.387 28.0272 17.8371C28.0419 19.3013 27.6628 20.6426 26.89 21.8609ZM14.5185 10.1942C15.941 9.3766 17.3418 8.93028 18.7208 8.85522C20.108 8.79431 21.3938 9.06545 22.5782 9.66864L16.5609 13.1269C15.7642 13.5847 15.0604 14.0553 14.4493 14.5387C13.8322 15.0444 13.3272 15.5801 12.9345 16.1456L10.6994 13.8617C11.0631 13.1807 11.5787 12.5162 12.2461 11.8683C12.9217 11.2346 13.6792 10.6765 14.5185 10.1942Z" fill="#181E2C"/>
  <path d="M9.80948 9.35048C9.35427 9.6121 8.93081 9.91211 8.5391 10.2505C8.16161 10.5807 7.826 10.9341 7.53225 11.3106C7.2303 11.673 6.98444 12.0503 6.79467 12.4425L4.88514 9.15023C5.18431 8.61956 5.58144 8.12699 6.07654 7.67253C6.57765 7.19572 7.12694 6.78564 7.72441 6.44226C8.56371 5.9599 9.43205 5.59302 10.3294 5.34161C11.241 5.08203 12.0799 4.95865 12.846 4.97148L13.7155 8.04024C13.0151 8.14069 12.3333 8.30596 11.6701 8.53605C10.9987 8.75198 10.3785 9.02346 9.80948 9.35048ZM4.29363 10.1416L8.00182 16.535C8.43711 17.2855 8.94624 17.9181 9.52921 18.4327C10.1182 18.9249 10.7698 19.2962 11.484 19.5466L7.57913 21.7908C7.00717 21.4587 6.45514 21.0301 5.92306 20.5052C5.39099 19.9802 4.9073 19.3425 4.47201 18.592C3.60142 17.091 3.16289 15.6154 3.1564 14.1653C3.1417 12.7011 3.52078 11.3598 4.29363 10.1416ZM16.6651 21.8083C15.2426 22.6258 13.8418 23.0722 12.4628 23.1472C11.0756 23.2081 9.78978 22.937 8.60537 22.3338L14.6227 18.8755C15.4193 18.4177 16.1232 17.9471 16.7343 17.4637C17.3514 16.958 17.8564 16.4224 18.2491 15.8568L20.4842 18.1407C20.1205 18.8218 19.6049 19.4862 18.9375 20.1341C18.2619 20.7679 17.5044 21.3259 16.6651 21.8083Z" fill="#181E2C"/>
</svg>